<?xml version="1.0"?><svg version="1.1" id="圖層_1" xmlns="http://www.w3.org/2000/svg" x="0" y="0" viewBox="0 0 100 100" xml:space="preserve"><path d="M37.4 18.3l-12-.1-.4 7.9c8.2 0 12.4-2.6 12.4-7.8z" fill="#333"/><path d="M62.6 18.3c0 5.1 4.2 7.7 12.4 7.7l-.5-7.8-11.9.1z" fill="#333"/><path d="M75.2 29H75c-13.4 0-15.4-6.7-15.4-10.7v-.1H40.4v.1c0 4-2 10.7-15.4 10.7h-.2l-3.7 63.2 17.3.3 8.1-54.9c.2-1.7 1.7-3 3.5-3s3.2 1.3 3.5 3l8.1 54.9 17.3-.3L75.2 29z" fill="#333"/><path fill="#333" d="M26.4 8.8l-.4 6.6h48l-.4-6.6z"/><metadata xmlns:d="https://loading.io/stock/">
<d:name>pants</d:name>
<d:tags>pants,trousers,slacks,clothing,jeans,straights,crops</d:tags>
<d:license>by</d:license>
<d:slug>hqigqi</d:slug>
</metadata></svg>