<?xml version="1.0" standalone="no"?>
<!DOCTYPE svg PUBLIC "-//W3C//DTD SVG 20010904//EN"
 "http://www.w3.org/TR/2001/REC-SVG-20010904/DTD/svg10.dtd">
<svg version="1.0" xmlns="http://www.w3.org/2000/svg"
 width="512.000000pt" height="512.000000pt" viewBox="0 0 512.000000 512.000000"
 preserveAspectRatio="xMidYMid meet">

<g transform="translate(0.000000,512.000000) scale(0.100000,-0.100000)"
fill="#000000" stroke="none">
<path d="M2451 4225 c-17 -15 -46 -56 -63 -91 -35 -71 -110 -149 -176 -183
-71 -36 -165 -51 -410 -66 -259 -15 -325 -25 -389 -56 -74 -36 -105 -89 -133
-224 -25 -123 -40 -104 124 -158 151 -50 174 -66 161 -107 -14 -43 -36 -42
-189 10 -80 26 -147 45 -150 42 -16 -30 -56 -175 -50 -182 5 -4 66 -26 137
-50 131 -43 157 -58 157 -90 0 -23 -26 -50 -47 -50 -8 0 -76 21 -150 46 -77
27 -137 43 -142 38 -5 -5 -24 -46 -43 -91 l-35 -82 141 -47 c77 -26 149 -54
159 -62 23 -20 19 -60 -8 -78 -17 -11 -41 -6 -179 42 -88 30 -160 53 -161 52
-41 -70 -82 -122 -153 -190 -87 -84 -324 -289 -395 -343 -97 -73 -142 -202
-110 -317 6 -24 43 -23 163 2 281 59 643 208 1030 424 373 209 475 296 709
611 162 217 341 403 441 458 89 49 174 70 271 65 42 -1 76 -1 74 2 -133 239
-307 534 -339 577 -53 72 -112 114 -169 120 -36 4 -48 1 -76 -22z"/>
<path d="M2865 3406 c-138 -44 -297 -190 -520 -476 -256 -330 -336 -400 -675
-595 -413 -237 -857 -428 -1155 -495 -55 -13 -102 -25 -104 -26 -7 -6 33 -45
60 -60 75 -38 260 -47 407 -19 250 48 609 219 952 455 102 70 213 146 247 168
34 23 215 130 402 237 188 106 394 230 458 274 131 89 278 213 336 284 l38 46
-30 58 c-30 61 -103 137 -147 153 -36 14 -221 11 -269 -4z"/>
<path d="M3370 2624 c-62 -21 -96 -45 -165 -120 l-77 -84 101 -117 c108 -124
119 -151 77 -178 -34 -23 -46 -14 -155 114 l-95 110 -68 -61 c-37 -33 -71 -64
-73 -69 -3 -4 27 -45 67 -91 140 -158 142 -162 112 -192 -35 -35 -59 -21 -164
99 l-102 115 -79 -61 -80 -61 68 -76 c37 -42 84 -96 105 -119 41 -46 47 -73
22 -97 -34 -35 -56 -20 -168 109 -60 69 -110 125 -111 125 -2 0 -32 -14 -67
-30 -36 -17 -108 -41 -161 -55 -89 -22 -411 -84 -517 -100 -103 -14 -193 -79
-236 -170 -13 -27 -24 -55 -24 -62 0 -28 256 -106 485 -148 238 -42 409 -56
765 -62 471 -8 535 4 932 173 109 47 238 98 287 114 260 85 440 77 592 -26 28
-19 53 -34 55 -34 9 0 3 630 -7 690 -27 167 -113 231 -221 166 -128 -76 -169
-91 -258 -91 -112 1 -163 19 -430 153 -266 134 -340 158 -410 136z"/>
<path d="M4245 1530 c-162 -34 -248 -63 -539 -180 -337 -135 -504 -159 -1005
-140 -466 17 -844 72 -1093 159 -55 19 -58 19 -58 2 0 -35 46 -102 100 -146
147 -120 376 -195 690 -226 183 -18 501 -15 700 6 144 15 269 18 700 20 604 2
722 12 944 82 l78 25 -4 96 c-5 126 -27 169 -115 229 -128 85 -242 107 -398
73z"/>
</g>
</svg>
